ffmpeg started on 2025-05-25 at 19:06:35
Report written to "D:\Convert\FFMetrics\reports\ssim_report-6.txt"
Log level: 32
Command line:
ffmpeg -hide_banner -nostdin -i "G:\\\xc0\xed\xe8\xec\xe5\\\xce\xed\xe3\xee\xe8\xed\xe3\xe8\\!_34_\xc2\xe5\xf1\xed\xe0_2024\\JamClub\\\xc1\xee\xf0\xfc\xe1\xe0 \xe2 \xef\xf0\xff\xec\xee\xec \xfd\xf4\xe8\xf0\xe5\\[JAM_CLUB]_Kenka_Dokugaku_09_[1080p][RUS][DUB]_HEVC.mkv" -i "G:\\\xc0\xed\xe8\xec\xe5\\\xce\xed\xe3\xee\xe8\xed\xe3\xe8\\!_34_\xc2\xe5\xf1\xed\xe0_2024\\JamClub\\\xc1\xee\xf0\xfc\xe1\xe0 \xe2 \xef\xf0\xff\xec\xee\xec \xfd\xf4\xe8\xf0\xe5\\[JAM_CLUB]_Kenka_Dokugaku_09_[1080p][RUS][DUB].mp4" -lavfi "[0:v]settb=AVTB,setpts=PTS-STARTPTS,format=pix_fmts=yuv420p10,fps=24000/1001,scale=1920:1080:flags=bicubic[main];[1:v]settb=AVTB,setpts=PTS-STARTPTS,format=pix_fmts=yuv420p,fps=24000/1001,scale=1920:1080:flags=bicubic[ref];[main][ref]ssim=eof_action=endall:stats_file='D\\:/Convert/FFMetrics/logs/ssim_logfile-6.txt'" -f null -
Input #0, matroska,webm, from 'G:\Аниме\Онгоинги\!_34_Весна_2024\JamClub\Борьба в прямом эфире\[JAM_CLUB]_Kenka_Dokugaku_09_[1080p][RUS][DUB]_HEVC.mkv':
  Metadata:
    COMPATIBLE_BRANDS: isomiso2avc1mp41
    MAJOR_BRAND     : isom
    MINOR_VERSION   : 512
    ENCODER         : Lavf61.7.100
  Duration: 00:23:17.38, start: -0.001000, bitrate: 1194 kb/s
  Stream #0:0: Video: hevc (Main 10), yuv420p10le(tv, bt709, progressive), 1920x1080 [SAR 1:1 DAR 16:9], 23.98 fps, 23.98 tbr, 1k tbn (default)
      Metadata:
        HANDLER_NAME    : VideoHandler
        VENDOR_ID       : [0][0][0][0]
        ENCODER         : Lavc61.19.100 libx265
        BPS             : 994911
        DURATION        : 00:23:17.228708333
        NUMBER_OF_FRAMES: 33501
        NUMBER_OF_BYTES : 173764777
        _STATISTICS_WRITING_APP: mkvpropedit v66.0.0 ('Josie') 64-bit
        _STATISTICS_WRITING_DATE_UTC: 2025-05-25 14:32:29
        _STATISTICS_TAGS: BPS DURATION NUMBER_OF_FRAMES NUMBER_OF_BYTES
  Stream #0:1(eng): Audio: aac (LC), 48000 Hz, stereo, fltp (default)
      Metadata:
        HANDLER_NAME    : SoundHandler
        VENDOR_ID       : [0][0][0][0]
        ENCODER         : Lavc61.19.100 aac
        BPS             : 195230
        DURATION        : 00:23:17.336000000
        NUMBER_OF_FRAMES: 65501
        NUMBER_OF_BYTES : 34100284
        _STATISTICS_WRITING_APP: mkvpropedit v66.0.0 ('Josie') 64-bit
        _STATISTICS_WRITING_DATE_UTC: 2025-05-25 14:32:29
        _STATISTICS_TAGS: BPS DURATION NUMBER_OF_FRAMES NUMBER_OF_BYTES
Input #1, mov,mp4,m4a,3gp,3g2,mj2, from 'G:\Аниме\Онгоинги\!_34_Весна_2024\JamClub\Борьба в прямом эфире\[JAM_CLUB]_Kenka_Dokugaku_09_[1080p][RUS][DUB].mp4':
  Metadata:
    major_brand     : isom
    minor_version   : 512
    compatible_brands: isomiso2avc1mp41
    encoder         : Lavf60.16.100
  Duration: 00:23:17.36, start: 0.000000, bitrate: 4009 kb/s
  Stream #1:0[0x1](und): Video: h264 (High) (avc1 / 0x31637661), yuv420p(progressive), 1920x1080 [SAR 1:1 DAR 16:9], 3811 kb/s, 23.98 fps, 23.98 tbr, 90k tbn (default)
      Metadata:
        handler_name    : VideoHandler
        vendor_id       : [0][0][0][0]
  Stream #1:1[0x2](eng): Audio: aac (LC) (mp4a / 0x6134706D), 48000 Hz, stereo, fltp, 191 kb/s (default)
      Metadata:
        handler_name    : SoundHandler
        vendor_id       : [0][0][0][0]
Stream mapping:
  Stream #0:0 (hevc) -> settb:default
  Stream #1:0 (h264) -> settb:default
  ssim:default -> Stream #0:0 (wrapped_avframe)
  Stream #0:1 -> #0:1 (aac (native) -> pcm_s16le (native))
Output #0, null, to 'pipe:':
  Metadata:
    COMPATIBLE_BRANDS: isomiso2avc1mp41
    MAJOR_BRAND     : isom
    MINOR_VERSION   : 512
    encoder         : Lavf61.7.100
  Stream #0:0: Video: wrapped_avframe, yuv420p10le(tv, bt709, progressive), 1920x1080 [SAR 1:1 DAR 16:9], q=2-31, 200 kb/s, 23.98 fps, 23.98 tbn
      Metadata:
        encoder         : Lavc61.19.100 wrapped_avframe
  Stream #0:1(eng): Audio: pcm_s16le, 48000 Hz, stereo, s16, 1536 kb/s (default)
      Metadata:
        HANDLER_NAME    : SoundHandler
        VENDOR_ID       : [0][0][0][0]
        _STATISTICS_TAGS: BPS DURATION NUMBER_OF_FRAMES NUMBER_OF_BYTES
        BPS             : 195230
        DURATION        : 00:23:17.336000000
        NUMBER_OF_FRAMES: 65501
        NUMBER_OF_BYTES : 34100284
        _STATISTICS_WRITING_APP: mkvpropedit v66.0.0 ('Josie') 64-bit
        _STATISTICS_WRITING_DATE_UTC: 2025-05-25 14:32:29
        encoder         : Lavc61.19.100 pcm_s16le
frame=  107 fps=0.0 q=-0.0 size=N/A time=00:00:04.46 bitrate=N/A speed=8.71x    frame=  270 fps=262 q=-0.0 size=N/A time=00:00:11.26 bitrate=N/A speed=10.9x    frame=  476 fps=309 q=-0.0 size=N/A time=00:00:19.85 bitrate=N/A speed=12.9x    frame=  715 fps=346 q=-0.0 size=N/A time=00:00:29.82 bitrate=N/A speed=14.4x    frame=  982 fps=381 q=-0.0 size=N/A time=00:00:40.95 bitrate=N/A speed=15.9x    frame= 1231 fps=397 q=-0.0 size=N/A time=00:00:51.34 bitrate=N/A speed=16.5x    frame= 1451 fps=402 q=-0.0 size=N/A time=00:01:00.51 bitrate=N/A speed=16.7x    frame= 1709 fps=415 q=-0.0 size=N/A time=00:01:11.27 bitrate=N/A speed=17.3x    frame= 1960 fps=422 q=-0.0 size=N/A time=00:01:21.74 bitrate=N/A speed=17.6x    frame= 2206 fps=428 q=-0.0 size=N/A time=00:01:32.00 bitrate=N/A speed=17.8x    frame= 2410 fps=424 q=-0.0 size=N/A time=00:01:40.51 bitrate=N/A speed=17.7x    frame= 2603 fps=421 q=-0.0 size=N/A time=00:01:48.56 bitrate=N/A speed=17.5x    frame= 2829 fps=422 q=-0.0 size=N/A time=00:01:57.99 bitrate=N/A speed=17.6x    frame= 3028 fps=419 q=-0.0 size=N/A time=00:02:06.29 bitrate=N/A speed=17.5x    frame= 3252 fps=421 q=-0.0 size=N/A time=00:02:15.63 bitrate=N/A speed=17.5x    frame= 3479 fps=421 q=-0.0 size=N/A time=00:02:25.10 bitrate=N/A speed=17.6x    frame= 3726 fps=425 q=-0.0 size=N/A time=00:02:35.40 bitrate=N/A speed=17.7x    frame= 3914 fps=421 q=-0.0 size=N/A time=00:02:43.24 bitrate=N/A speed=17.6x    frame= 4066 fps=415 q=-0.0 size=N/A time=00:02:49.58 bitrate=N/A speed=17.3x    frame= 4231 fps=410 q=-0.0 size=N/A time=00:02:56.46 bitrate=N/A speed=17.1x    frame= 4442 fps=410 q=-0.0 size=N/A time=00:03:05.26 bitrate=N/A speed=17.1x    frame= 4676 fps=412 q=-0.0 size=N/A time=00:03:15.02 bitrate=N/A speed=17.2x    frame= 4899 fps=413 q=-0.0 size=N/A time=00:03:24.32 bitrate=N/A speed=17.2x    frame= 5130 fps=415 q=-0.0 size=N/A time=00:03:33.96 bitrate=N/A speed=17.3x    frame= 5342 fps=414 q=-0.0 size=N/A time=00:03:42.80 bitrate=N/A speed=17.3x    frame= 5548 fps=414 q=-0.0 size=N/A time=00:03:51.39 bitrate=N/A speed=17.3x    frame= 5795 fps=416 q=-0.0 size=N/A time=00:04:01.69 bitrate=N/A speed=17.4x    frame= 6014 fps=417 q=-0.0 size=N/A time=00:04:10.83 bitrate=N/A speed=17.4x    frame= 6228 fps=416 q=-0.0 size=N/A time=00:04:19.75 bitrate=N/A speed=17.4x    frame= 6490 fps=420 q=-0.0 size=N/A time=00:04:30.68 bitrate=N/A speed=17.5x    frame= 6758 fps=423 q=-0.0 size=N/A time=00:04:41.86 bitrate=N/A speed=17.6x    frame= 7007 fps=425 q=-0.0 size=N/A time=00:04:52.25 bitrate=N/A speed=17.7x    frame= 7231 fps=425 q=-0.0 size=N/A time=00:05:01.59 bitrate=N/A speed=17.7x    frame= 7468 fps=426 q=-0.0 size=N/A time=00:05:11.47 bitrate=N/A speed=17.8x    frame= 7746 fps=429 q=-0.0 size=N/A time=00:05:23.07 bitrate=N/A speed=17.9x    frame= 7970 fps=429 q=-0.0 size=N/A time=00:05:32.41 bitrate=N/A speed=17.9x    frame= 8203 fps=430 q=-0.0 size=N/A time=00:05:42.13 bitrate=N/A speed=17.9x    frame= 8445 fps=431 q=-0.0 size=N/A time=00:05:52.22 bitrate=N/A speed=  18x    frame= 8691 fps=432 q=-0.0 size=N/A time=00:06:02.48 bitrate=N/A speed=  18x    frame= 8971 fps=435 q=-0.0 size=N/A time=00:06:14.16 bitrate=N/A speed=18.1x    frame= 9225 fps=436 q=-0.0 size=N/A time=00:06:24.75 bitrate=N/A speed=18.2x    frame= 9473 fps=438 q=-0.0 size=N/A time=00:06:35.10 bitrate=N/A speed=18.2x    frame= 9735 fps=439 q=-0.0 size=N/A time=00:06:46.03 bitrate=N/A speed=18.3x    frame= 9954 fps=439 q=-0.0 size=N/A time=00:06:55.16 bitrate=N/A speed=18.3x    frame=10195 fps=439 q=-0.0 size=N/A time=00:07:05.21 bitrate=N/A speed=18.3x    frame=10465 fps=441 q=-0.0 size=N/A time=00:07:16.47 bitrate=N/A speed=18.4x    frame=10693 fps=441 q=-0.0 size=N/A time=00:07:25.98 bitrate=N/A speed=18.4x    frame=10911 fps=441 q=-0.0 size=N/A time=00:07:35.07 bitrate=N/A speed=18.4x    frame=11161 fps=442 q=-0.0 size=N/A time=00:07:45.50 bitrate=N/A speed=18.4x    frame=11411 fps=442 q=-0.0 size=N/A time=00:07:55.93 bitrate=N/A speed=18.5x    frame=11642 fps=443 q=-0.0 size=N/A time=00:08:05.56 bitrate=N/A speed=18.5x    frame=11909 fps=444 q=-0.0 size=N/A time=00:08:16.70 bitrate=N/A speed=18.5x    frame=12164 fps=445 q=-0.0 size=N/A time=00:08:27.34 bitrate=N/A speed=18.6x    frame=12310 fps=442 q=-0.0 size=N/A time=00:08:33.42 bitrate=N/A speed=18.4x    frame=12528 fps=442 q=-0.0 size=N/A time=00:08:42.52 bitrate=N/A speed=18.4x    frame=12803 fps=443 q=-0.0 size=N/A time=00:08:53.99 bitrate=N/A speed=18.5x    frame=13071 fps=445 q=-0.0 size=N/A time=00:09:05.16 bitrate=N/A speed=18.5x    frame=13339 fps=446 q=-0.0 size=N/A time=00:09:16.34 bitrate=N/A speed=18.6x    frame=13526 fps=445 q=-0.0 size=N/A time=00:09:24.14 bitrate=N/A speed=18.5x    frame=13778 fps=445 q=-0.0 size=N/A time=00:09:34.65 bitrate=N/A speed=18.6x    frame=14018 fps=446 q=-0.0 size=N/A time=00:09:44.66 bitrate=N/A speed=18.6x    frame=14210 fps=444 q=-0.0 size=N/A time=00:09:52.67 bitrate=N/A speed=18.5x    frame=14470 fps=445 q=-0.0 size=N/A time=00:10:03.51 bitrate=N/A speed=18.6x    frame=14734 fps=446 q=-0.0 size=N/A time=00:10:14.53 bitrate=N/A speed=18.6x    frame=14990 fps=447 q=-0.0 size=N/A time=00:10:25.20 bitrate=N/A speed=18.6x    frame=15257 fps=448 q=-0.0 size=N/A time=00:10:36.34 bitrate=N/A speed=18.7x    frame=15501 fps=448 q=-0.0 size=N/A time=00:10:46.52 bitrate=N/A speed=18.7x    frame=15709 fps=448 q=-0.0 size=N/A time=00:10:55.19 bitrate=N/A speed=18.7x    frame=15906 fps=447 q=-0.0 size=N/A time=00:11:03.41 bitrate=N/A speed=18.6x    frame=16100 fps=446 q=-0.0 size=N/A time=00:11:11.50 bitrate=N/A speed=18.6x    frame=16271 fps=444 q=-0.0 size=N/A time=00:11:18.63 bitrate=N/A speed=18.5x    frame=16512 fps=444 q=-0.0 size=N/A time=00:11:28.68 bitrate=N/A speed=18.5x    frame=16789 fps=446 q=-0.0 size=N/A time=00:11:40.24 bitrate=N/A speed=18.6x    frame=17061 fps=447 q=-0.0 size=N/A time=00:11:51.58 bitrate=N/A speed=18.6x    frame=17299 fps=447 q=-0.0 size=N/A time=00:12:01.51 bitrate=N/A speed=18.6x    frame=17560 fps=448 q=-0.0 size=N/A time=00:12:12.39 bitrate=N/A speed=18.7x    frame=17798 fps=448 q=-0.0 size=N/A time=00:12:22.32 bitrate=N/A speed=18.7x    frame=18033 fps=448 q=-0.0 size=N/A time=00:12:32.12 bitrate=N/A speed=18.7x    frame=18187 fps=446 q=-0.0 size=N/A time=00:12:38.54 bitrate=N/A speed=18.6x    frame=18427 fps=446 q=-0.0 size=N/A time=00:12:48.55 bitrate=N/A speed=18.6x    frame=18636 fps=446 q=-0.0 size=N/A time=00:12:57.27 bitrate=N/A speed=18.6x    frame=18844 fps=445 q=-0.0 size=N/A time=00:13:05.95 bitrate=N/A speed=18.6x    frame=19068 fps=445 q=-0.0 size=N/A time=00:13:15.29 bitrate=N/A speed=18.6x    frame=19319 fps=445 q=-0.0 size=N/A time=00:13:25.76 bitrate=N/A speed=18.6x    frame=19575 fps=446 q=-0.0 size=N/A time=00:13:36.44 bitrate=N/A speed=18.6x    frame=19822 fps=446 q=-0.0 size=N/A time=00:13:46.74 bitrate=N/A speed=18.6x    frame=20056 fps=447 q=-0.0 size=N/A time=00:13:56.50 bitrate=N/A speed=18.6x    frame=20282 fps=446 q=-0.0 size=N/A time=00:14:05.92 bitrate=N/A speed=18.6x    frame=20487 fps=446 q=-0.0 size=N/A time=00:14:14.47 bitrate=N/A speed=18.6x    frame=20724 fps=446 q=-0.0 size=N/A time=00:14:24.36 bitrate=N/A speed=18.6x    frame=20977 fps=447 q=-0.0 size=N/A time=00:14:34.91 bitrate=N/A speed=18.6x    frame=21215 fps=447 q=-0.0 size=N/A time=00:14:44.84 bitrate=N/A speed=18.6x    frame=21468 fps=447 q=-0.0 size=N/A time=00:14:55.39 bitrate=N/A speed=18.7x    frame=21739 fps=448 q=-0.0 size=N/A time=00:15:06.69 bitrate=N/A speed=18.7x    frame=21997 fps=449 q=-0.0 size=N/A time=00:15:17.45 bitrate=N/A speed=18.7x    frame=22263 fps=449 q=-0.0 size=N/A time=00:15:28.55 bitrate=N/A speed=18.7x    frame=22542 fps=450 q=-0.0 size=N/A time=00:15:40.18 bitrate=N/A speed=18.8x    frame=22823 fps=451 q=-0.0 size=N/A time=00:15:51.90 bitrate=N/A speed=18.8x    frame=23068 fps=452 q=-0.0 size=N/A time=00:16:02.12 bitrate=N/A speed=18.8x    frame=23340 fps=452 q=-0.0 size=N/A time=00:16:13.47 bitrate=N/A speed=18.9x    frame=23622 fps=453 q=-0.0 size=N/A time=00:16:25.23 bitrate=N/A speed=18.9x    frame=23888 fps=454 q=-0.0 size=N/A time=00:16:36.32 bitrate=N/A speed=18.9x    frame=24152 fps=454 q=-0.0 size=N/A time=00:16:47.33 bitrate=N/A speed=18.9x    frame=24407 fps=455 q=-0.0 size=N/A time=00:16:57.97 bitrate=N/A speed=  19x    frame=24543 fps=453 q=-0.0 size=N/A time=00:17:03.64 bitrate=N/A speed=18.9x    frame=24798 fps=453 q=-0.0 size=N/A time=00:17:14.28 bitrate=N/A speed=18.9x    frame=25038 fps=453 q=-0.0 size=N/A time=00:17:24.29 bitrate=N/A speed=18.9x    frame=25294 fps=454 q=-0.0 size=N/A time=00:17:34.97 bitrate=N/A speed=18.9x    frame=25555 fps=454 q=-0.0 size=N/A time=00:17:45.85 bitrate=N/A speed=18.9x    frame=25782 fps=454 q=-0.0 size=N/A time=00:17:55.32 bitrate=N/A speed=18.9x    frame=26024 fps=454 q=-0.0 size=N/A time=00:18:05.41 bitrate=N/A speed=18.9x    frame=26278 fps=455 q=-0.0 size=N/A time=00:18:16.01 bitrate=N/A speed=  19x    frame=26518 fps=455 q=-0.0 size=N/A time=00:18:26.02 bitrate=N/A speed=  19x    frame=26784 fps=455 q=-0.0 size=N/A time=00:18:37.11 bitrate=N/A speed=  19x    frame=27068 fps=456 q=-0.0 size=N/A time=00:18:48.96 bitrate=N/A speed=  19x    frame=27324 fps=456 q=-0.0 size=N/A time=00:18:59.63 bitrate=N/A speed=  19x    frame=27587 fps=457 q=-0.0 size=N/A time=00:19:10.60 bitrate=N/A speed=19.1x    frame=27826 fps=457 q=-0.0 size=N/A time=00:19:20.57 bitrate=N/A speed=19.1x    frame=28078 fps=457 q=-0.0 size=N/A time=00:19:31.08 bitrate=N/A speed=19.1x    frame=28327 fps=457 q=-0.0 size=N/A time=00:19:41.47 bitrate=N/A speed=19.1x    frame=28564 fps=457 q=-0.0 size=N/A time=00:19:51.35 bitrate=N/A speed=19.1x    frame=28810 fps=458 q=-0.0 size=N/A time=00:20:01.61 bitrate=N/A speed=19.1x    frame=29060 fps=458 q=-0.0 size=N/A time=00:20:12.04 bitrate=N/A speed=19.1x    frame=29274 fps=458 q=-0.0 size=N/A time=00:20:20.96 bitrate=N/A speed=19.1x    frame=29498 fps=457 q=-0.0 size=N/A time=00:20:30.31 bitrate=N/A speed=19.1x    frame=29705 fps=457 q=-0.0 size=N/A time=00:20:38.94 bitrate=N/A speed=19.1x    frame=29903 fps=456 q=-0.0 size=N/A time=00:20:47.20 bitrate=N/A speed=  19x    frame=30126 fps=456 q=-0.0 size=N/A time=00:20:56.50 bitrate=N/A speed=  19x    frame=30354 fps=456 q=-0.0 size=N/A time=00:21:06.01 bitrate=N/A speed=  19x    frame=30560 fps=456 q=-0.0 size=N/A time=00:21:14.60 bitrate=N/A speed=  19x    frame=30793 fps=456 q=-0.0 size=N/A time=00:21:24.32 bitrate=N/A speed=  19x    frame=31051 fps=456 q=-0.0 size=N/A time=00:21:35.08 bitrate=N/A speed=  19x    frame=31274 fps=456 q=-0.0 size=N/A time=00:21:44.38 bitrate=N/A speed=  19x    frame=31511 fps=456 q=-0.0 size=N/A time=00:21:54.27 bitrate=N/A speed=  19x    frame=31738 fps=456 q=-0.0 size=N/A time=00:22:03.73 bitrate=N/A speed=  19x    frame=31975 fps=456 q=-0.0 size=N/A time=00:22:13.62 bitrate=N/A speed=  19x    frame=32184 fps=455 q=-0.0 size=N/A time=00:22:22.34 bitrate=N/A speed=  19x    frame=32435 fps=456 q=-0.0 size=N/A time=00:22:32.80 bitrate=N/A speed=  19x    frame=32701 fps=456 q=-0.0 size=N/A time=00:22:43.90 bitrate=N/A speed=  19x    frame=32924 fps=456 q=-0.0 size=N/A time=00:22:53.20 bitrate=N/A speed=  19x    frame=33142 fps=456 q=-0.0 size=N/A time=00:23:02.29 bitrate=N/A speed=  19x    frame=33376 fps=456 q=-0.0 size=N/A time=00:23:12.05 bitrate=N/A speed=  19x    [Parsed_ssim_10 @ 0000022323c94580] SSIM Y:0.994231 (22.388883) U:0.995216 (23.202207) V:0.995095 (23.093466) All:0.994539 (22.627328)
[out#0/null @ 0000022319001d40] video:14395KiB audio:262004KiB subtitle:0KiB other streams:0KiB global headers:0KiB muxing overhead: unknown
frame=33500 fps=456 q=-0.0 Lsize=N/A time=00:23:17.22 bitrate=N/A speed=  19x    
